<?xml version="1.0" standalone="no"?>
<!DOCTYPE svg PUBLIC "-//W3C//DTD SVG 20010904//EN"
 "http://www.w3.org/TR/2001/REC-SVG-20010904/DTD/svg10.dtd">
<svg version="1.0" xmlns="http://www.w3.org/2000/svg"
 width="300.000000pt" height="97.000000pt" viewBox="0 0 300.000000 97.000000"
 preserveAspectRatio="xMidYMid meet">

<g transform="translate(0.000000,97.000000) scale(0.100000,-0.100000)"
fill="#ffffff" stroke="none">
<path d="M2266 747 c-13 -17 -29 -44 -35 -59 -5 -15 -11 -121 -12 -236 -1
-183 1 -213 16 -236 10 -14 19 -26 20 -26 2 0 12 15 23 34 19 31 19 36 5 56
-13 19 -15 52 -11 225 3 111 10 210 15 219 9 16 13 14 37 -15 27 -32 29 -32
42 -14 20 27 17 52 -8 69 -35 25 -64 20 -92 -17z"/>
<path d="M1908 703 c-23 -27 -48 -79 -48 -103 0 -25 -45 -46 -65 -30 -13 10
-32 -6 -53 -45 -9 -17 -11 -16 -26 19 -14 33 -18 37 -32 25 -25 -20 -56 -89
-49 -107 6 -16 7 -16 19 1 7 9 17 17 21 17 4 0 6 -53 4 -117 -3 -102 -1 -122
15 -146 l19 -28 22 33 c20 29 21 35 9 53 -23 33 -14 148 15 194 8 12 12 13 25
1 18 -14 18 -15 34 23 20 46 32 31 32 -40 1 -107 16 -203 38 -232 10 -14 23
-25 28 -24 5 1 25 30 44 64 l34 64 10 -34 c5 -18 25 -50 44 -70 l34 -36 34 40
c54 64 69 102 69 175 0 73 -24 131 -67 163 l-27 20 -25 -29 c-42 -48 -76 -124
-76 -171 0 -24 -4 -42 -9 -40 -4 1 -18 -9 -29 -23 -11 -14 -24 -21 -28 -17 -5
5 -10 56 -12 114 l-4 106 27 -5 c21 -5 28 -1 36 19 13 34 13 33 -26 33 -31 0
-35 3 -35 25 0 13 7 43 16 65 19 47 8 72 -18 43z m222 -306 c12 -53 12 -57
-15 -102 -15 -26 -30 -43 -35 -38 -17 18 -40 110 -40 157 0 35 7 62 22 86 l21
35 17 -41 c10 -23 23 -66 30 -97z"/>
<path d="M477 669 c-31 -35 -37 -50 -37 -88 0 -32 -6 -51 -21 -67 -20 -21 -20
-24 -5 -39 9 -9 16 -31 16 -48 0 -49 -44 -135 -79 -155 -26 -15 -52 -65 -39
-77 1 -2 28 1 58 7 51 9 139 5 173 -8 11 -4 21 5 31 25 9 16 16 32 16 34 0 12
-71 31 -116 31 l-52 0 23 41 c35 60 55 140 55 219 l1 71 24 -28 c14 -15 25
-37 25 -48 0 -10 4 -19 8 -19 15 0 32 24 32 44 0 25 -31 92 -58 125 l-19 23
-36 -43z"/>
<path d="M1133 702 c-30 -5 -41 -21 -49 -72 -7 -43 -6 -44 12 -29 45 39 78 28
94 -33 10 -36 9 -43 -8 -61 -20 -19 -20 -19 0 -39 16 -16 19 -28 14 -60 -8
-52 -39 -111 -71 -136 -14 -11 -28 -34 -32 -52 -6 -31 -5 -32 18 -24 30 11
148 11 169 1 12 -5 25 4 48 35 17 24 41 55 52 69 27 32 35 96 18 129 -7 13
-28 34 -46 46 -18 13 -29 25 -24 28 5 3 17 21 26 40 14 30 14 37 1 63 -8 15
-17 45 -20 66 -5 34 -8 37 -22 25 -9 -7 -29 -31 -45 -52 -16 -22 -28 -32 -28
-23 0 21 -45 74 -67 79 -10 2 -28 2 -40 0z m153 -180 c-30 -32 -31 -32 -34
-11 -2 12 4 39 14 61 l17 38 17 -27 c17 -28 17 -28 -14 -61z m68 -97 c12 -32
6 -61 -25 -114 -29 -50 -33 -53 -61 -47 -17 3 -37 6 -45 6 -10 0 -11 5 -4 18
5 10 15 46 21 81 14 80 40 107 81 85 15 -7 29 -21 33 -29z"/>
<path d="M678 532 c-48 -62 -58 -91 -58 -160 0 -68 26 -129 66 -161 l28 -22
29 33 c53 63 71 108 71 178 0 48 -6 76 -22 107 -19 37 -55 73 -72 73 -3 0 -22
-22 -42 -48z m71 -231 c-14 -25 -30 -46 -35 -48 -6 -2 -18 20 -27 49 -27 91
-30 122 -13 163 33 78 38 76 70 -25 l30 -94 -25 -45z"/>
<path d="M878 563 c-23 -27 -48 -79 -48 -103 0 -66 57 -121 86 -83 12 16 15
16 24 3 11 -15 8 -95 -3 -107 -4 -3 -18 9 -32 26 -37 43 -68 42 -82 -4 -11
-33 -10 -35 13 -35 17 0 31 -10 45 -34 l19 -33 46 42 c39 35 47 49 51 88 8 67
-4 114 -33 133 -23 15 -26 15 -44 -1 -24 -21 -40 -12 -40 23 0 26 2 27 38 24
42 -4 56 7 68 52 6 26 5 28 -12 21 -23 -10 -44 -10 -65 -1 -9 4 -22 0 -31 -11z"/>
<path d="M1470 532 c-16 -24 -35 -69 -41 -99 -11 -48 -10 -65 4 -120 18 -68
52 -127 68 -117 5 3 19 24 31 47 l22 42 8 -40 c5 -22 12 -43 17 -48 12 -12 74
102 66 122 -6 14 -8 14 -21 -3 -12 -18 -14 -8 -14 86 0 60 4 108 10 110 5 2
12 17 16 33 l5 30 -71 0 -71 0 -29 -43z m96 -46 c-3 -12 -6 -48 -6 -82 0 -47
-5 -69 -22 -94 -34 -49 -44 -47 -58 10 -14 59 -10 100 19 164 19 44 21 46 46
34 20 -9 25 -17 21 -32z"/>
<path d="M2383 537 c-71 -94 -82 -177 -35 -267 15 -30 36 -60 48 -67 19 -12
24 -10 59 33 65 79 80 156 49 247 -14 41 -62 98 -82 97 -4 0 -22 -20 -39 -43z
m61 -64 c36 -112 37 -133 8 -185 -15 -26 -30 -48 -33 -48 -6 0 -21 63 -35 142
-6 38 20 138 36 138 5 0 15 -21 24 -47z"/>
<path d="M2560 533 c-33 -52 -35 -61 -19 -116 13 -48 54 -71 74 -43 19 26 35
11 35 -34 0 -67 -9 -76 -41 -41 -35 38 -66 40 -79 5 -14 -36 -13 -44 8 -44 21
0 45 -24 56 -55 7 -18 12 -15 57 32 37 39 49 60 51 85 3 80 -6 114 -38 135
-25 16 -27 16 -39 0 -22 -31 -45 -14 -45 34 0 16 5 18 25 13 43 -11 73 3 80
37 8 38 3 44 -24 27 -16 -10 -23 -10 -33 0 -21 21 -38 13 -68 -35z"/>
</g>
</svg>
